<svg id="Слой_1" data-name="Слой 1" xmlns="http://www.w3.org/2000/svg" viewBox="0 0 3106 2676"><defs><style>.cls-1{fill:#fff;}</style></defs><path class="cls-1" d="M1315.5,223c-210.1,26.4-533,67-717.5,90.2L262.5,355.5l-.3,588.8L262,1533h5.9c9.7,0,83.6,4.5,653.6,40,229.9,14.3,419.9,26.3,422.2,26.6l4.1.5.6,13.2c.4,7.3,1.1,88.8,1.6,181.2.9,149.3,1.6,186.4,3.4,188.2.6.6,1.4.5,597.1-73.8,264.6-33,562.4-70.1,662-82.5s181.2-22.8,181.4-23c1.1-1.1,2-298.7,2-720.2.1-364.2-.2-456.3-1.1-456.7-1.1-.3-462.8-29.2-726.3-45.5-144-8.9-327.7-19.5-348.5-20.2l-8.5-.3-.7,7c-1.6,17-2.8,286.8-2.8,654.4v398.4l-20.7-.6c-26.3-.8-143.8-7.9-322.1-19.6-7.3-.5-13.6-1.2-14-1.6-1.2-1.2-1.5-840.4-.3-941,1.1-89.8,1.9-112.1,4.2-117.8l1.2-2.8,8.1.6c4.4.3,33.8,2.1,65.1,4.1s84.7,5.2,118.5,7.4c86.4,5.6,144.9,9,153.1,9h6.9V394.2c0-151.4-.7-205.4-2.8-215.2-.7-3.1-1.1-3.5-4.2-3.7C1699.1,175.2,1525.6,196.7,1315.5,223Z"/><path class="cls-1" d="M427.6,1822.1c-34.3,8.4-45.9,32.3-44.3,90.8.6,22.6,2.2,30.5,8.7,43.6,9.6,19.4,25.5,29.6,46,29.6,25.6-.1,47-17.7,54.1-44.8,4.1-15.3,3.7-53.7-.7-75.2-2.9-14-4.9-17.8-14.3-27.1s-18.3-14.8-28.7-17.5C441,1819.6,437.4,1819.7,427.6,1822.1Zm19.5,24.4c4.9.7,11.4,5.6,13.8,10.2,4,7.9,4.6,14.3,4.6,46.8,0,26.3-.3,32.2-1.8,38.7-2.1,9-5.8,14.6-11.3,17.4-5.4,2.6-21.3,2.6-26.4,0-12.6-6.5-15.1-16.2-15.1-57.9,0-27.8.9-36.3,4.1-42.8s10.8-11.5,18.9-12.9C438.4,1845.2,439.9,1845.3,447.1,1846.5Z"/><path class="cls-1" d="M262,1903.4V1983h30.3l-.6-9.8c-.4-5.3-1-19.5-1.4-31.4-.7-23.8-.5-24.8,4.8-24.8,6.2,0,14.8,10.7,30.5,38,10.3,17.9,15.8,24.3,22.4,26,4.8,1.3,21.4,1.9,22.5.8.9-.9-2.1-6.6-24.7-46.1-11-19.3-20.1-35.7-20.1-36.2s5.7-10.7,12.8-22.5,16.4-27.8,20.7-35.5c9.1-16.2,9.1-15.9-2.8-17-9.3-.9-15.3,0-19.5,2.8-3.4,2.4-9.3,11.7-19.9,31.9-12.2,23.2-18.9,31.3-22.6,27.6-2.8-2.7-3.5-9-4.2-34.8l-.7-25.5-6-.6c-3.3-.4-9.5-1-13.7-1.4l-7.8-.7Z"/><path class="cls-1" d="M538.5,1825.2c-.2.7-1.5,21.7-3,46.6-4.3,75.4-5.6,81.5-17.9,87.5-7,3.5-9.6,7.3-9.6,14,0,7.1,2.9,9.7,10.8,9.7,12.1,0,21.1-4.6,27.1-13.9,9.4-14.7,13.5-37.6,16.1-91.1.6-11.8,1.3-23.9,1.6-26.8l.5-5.2H600v137h25V1824H582C548.4,1824,538.8,1824.3,538.5,1825.2Z"/><path class="cls-1" d="M680,1825.2c0,.7-.9,13-2,27.3s-2.5,36.6-3,49.5c-.5,13.1-1.6,26.6-2.4,30.6-3.8,18.1-9.1,27.4-16.7,29.4-2.8.8-4.3,1.9-4.9,3.6-1.2,3-1.3,12.4-.2,14,1.4,2.2,5.2,3.4,10.5,3.4,19.9,0,31-14,36.7-46.5,2.6-14.7,3.5-24.8,5.6-60.4l1.8-30.1H741v137h26l-.2-79.3-.3-79.2-43.2-.3C689,1824,680,1824.2,680,1825.2Z"/><path class="cls-1" d="M800,1903.5V1983h88.3l-.5-8.1c-.8-13,1-12.3-33.8-12.7l-29-.3v-49.8l24.9-.3c29.7-.4,29.1-.2,29.1-10.4,0-9.8,0-9.8-29.7-10.2l-24.3-.3V1846l20.8-.1c26.1-.1,37.7-1,40-3.2,1.2-1.3,1.6-3.6,1.7-9.9v-8.3l-43.7-.3L800,1824Z"/><path class="cls-1" d="M945.9,1824.9c-9,.8-12.9,2.9-12.9,6.9,0,3.8-2.7,38.7-4.5,57.7-3.8,39.2-9.1,61.6-16.5,69.3a13,13,0,0,1-5.1,2.9c-6.1,1.2-6.4,2.7-6.7,34.6l-.3,28.9,10-.4c8.4-.2,10.4-.6,12-2.3,2.3-2.3,3.6-10.1,4.6-26.6l.7-10.6,18.6-.6c10.3-.4,29.4-1,42.5-1.3l23.7-.7v16.4c0,20.3.7,23.4,5.8,24.9,2,.6,7.3,1,11.7.8l8-.3.3-18.1c.1-10-.1-23.2-.6-29.3-1-12.6-2.3-15.1-7.7-15.1-4.8,0-6.4-2.5-7.5-12.1-.6-4.6-1-34.8-1-67.2V1824l-33.7.2C968.7,1824.2,950.1,1824.6,945.9,1824.9Zm49.1,79.2v58.2l-26.1-.5c-14.3-.3-26.3-.9-26.7-1.2s1-5.7,3.1-11.9c6.5-19.9,9.7-40,12.3-76.7.9-12.9,1.8-24.1,2-24.8.2-.9,4.7-1.2,17.9-1.2H995Z"/><path class="cls-1" d="M1058.7,1824.7c-2.1.2-4.1,1.1-4.3,1.8-.6,1.5,12.3,26.8,27.5,54l8.9,15.9-9.1,18.1c-5,9.9-14.2,29.2-20.3,43l-11.2,25,11.1.3c18.6.5,20.5-.8,29.5-19.8,14.2-30.2,19.2-39.7,22.4-42.7,4.4-4.2,8.6-5.1,11.8-2.5s3.8,8.2,3.9,39.4l.1,25.8h24.8l.4-30.3c.5-32.5.9-35,5.6-36.2,5.3-1.3,12,7.1,19.8,24.5,2.5,5.8,6.9,15.7,9.7,22,3.1,6.9,6.6,13.1,8.8,15.5l3.8,4h12.9c7.2,0,13.4-.3,13.8-.7.9-.9-3.4-10.7-22.5-51.2-8.3-17.6-15.1-32.4-15.1-33s8.5-17.3,18.8-37.1,18.5-36.1,18.1-36.3c-2-.8-25,1.8-28.3,3.2-4.4,1.8-8.5,8.1-15.1,23.1-7.2,16.6-15.3,31.9-19,35.9-4.1,4.6-8,4.9-9.7.8-.7-1.7-1.3-13.5-1.6-33l-.4-30.2h-24.6l-.6,18.7c-1.3,36.9-3,46.3-8.5,47.1-5,.8-9.5-6.4-21.7-34.5-10-23.2-13.1-28.1-18.5-30C1076.6,1824.2,1066.7,1823.9,1058.7,1824.7Z"/><path class="cls-1" d="M2706.3,2054c-3.4,1.4-2.9,4.6,1.7,11.6,8.4,12.9,17.3,17.7,32.5,17.8,19,.1,32.8-8.4,34.2-20.8.4-3.5.1-4.8-1.6-6.5-4.3-4.3-12.4-2-21,6.2-6.4,6-10.8,8.2-14.8,7.2-1.5-.3-5.4-3.5-8.7-7-4.9-5.1-7.1-6.6-11.5-7.9C2711,2052.8,2709.5,2052.7,2706.3,2054Z"/><path class="cls-1" d="M2216.3,2093.5c-15.2,3.3-28.9,13.7-35.7,27.2-7.1,14.2-9.9,29.8-9.9,55.8,0,33.7,5.4,51.4,19.9,65.8,19.5,19.4,53.8,19.8,73,1,8.1-8,17.3-29,15.1-34.6-1.2-3.2-5.7-5.1-12.3-5.1-8.3,0-10.9,1.9-15.4,11-4.9,10-8.1,13.8-14.2,16.8a23,23,0,0,1-21.9-.2c-4.8-2.4-5.8-3.5-8.6-9.2-4.2-8.5-5.3-15.4-6-39.5-.6-20.8.6-39.8,3-49.2,3.2-12.1,9.8-16.8,23.7-16.7,14.3.1,19.6,4.3,24.1,19.4,2.8,9.3,5.8,12.6,12.3,13.5,5.6.9,12.1.2,14.1-1.5,3.1-2.6.5-18.4-4.6-28-4.1-7.7-14.7-17.8-23.1-21.9-6.6-3.3-17.9-6.1-23.8-6A66,66,0,0,0,2216.3,2093.5Z"/><path class="cls-1" d="M262,2174.5V2254h8.8c10.7,0,14.8-1.7,17.7-7.5,1.8-3.7,2-6,2-27.5.1-24.3.8-30,4.3-31.9,5-2.8,12.9,7.3,28.2,35.9,11.3,21.3,14.6,26,20,28.8,4.1,2.1,5.5,2.3,15,2,5.9-.3,11.1-.8,11.8-1.2.9-.5.6-1.8-.9-4.9-2.5-4.8-21.2-37.6-34.8-60.7l-9-15.4,2.9-5.1c18.1-30.6,38.1-66.8,37.8-68.2-.4-2.1-5.2-3.2-15.6-3.2-13.7-.2-16.1,2.1-29.9,29.4-13.4,26.6-20.6,37.5-24.4,37.5-4,0-4.4-3.2-4.7-35.8l-.4-31.2H262Z"/><path class="cls-1" d="M387,2174.5v79.6l14.8-.3,14.7-.3.3-28.8.2-28.7h10.8c35.8,0,53.2-8.3,60.2-28.5,4.1-11.8,3.6-32.4-1.1-45.1-1.7-4.6-3.8-7.5-9.8-13.4-13.2-13.1-16.7-13.9-60.8-14H387Zm60.2-56.5c8.9,2.3,17.6,15.9,18.6,29.1.4,6,.1,7.2-2.4,11.9a23.08,23.08,0,0,1-8,8.7c-7.6,5-13,6.3-26.6,6.3H417v-58.3l12.8.6A135.51,135.51,0,0,1,447.2,2118Z"/><path class="cls-1" d="M516,2174.4V2254h88v-8.3c0-12.8,1.9-12.1-33.5-12.5l-29.4-.3.5-6.7c.3-3.7.9-14.3,1.4-23.6s1-16.9,1.2-17.1,9.5-.8,20.8-1.4c22.5-1.2,27.2-2.1,29.5-5.4,1.7-2.4,2-9.9.5-12.7-1.8-3.4-6.5-4-30.7-4H540.9l.5-3.3c.3-1.7.8-9.3,1.1-16.7s.8-15.9,1.1-18.8l.6-5.2h8.7c14.1,0,42.3-1.9,45.8-3.1,4.1-1.3,5.3-3.5,5.3-9.6,0-10,.9-9.7-47.2-10.1l-40.8-.4Z"/><path class="cls-1" d="M671.3,2096.5c-4.3,1.8-7.7,9.3-15.3,34-5.2,16.9-23.1,73.6-35.5,112.5l-3.4,10.5,9.7.3c11.2.4,16.3-.8,18.6-4.3.9-1.3,2.7-6.4,4.1-11.2,3.1-11.2,5.1-14.9,8.4-16.1,1.4-.6,8.7-1.3,16.1-1.7s16.6-1.1,20.4-1.7c9.4-1.5,8.9-2.2,16.1,23.5a27,27,0,0,0,4,8.5c2.3,2.6,2.6,2.7,13,2.7,9.2,0,10.8-.3,12-1.8a4.23,4.23,0,0,0,1-3c-21.2-66.9-40.7-126.6-43.7-134.4-4.4-11.5-7.3-16.2-10.8-18C682.7,2094.6,675.3,2094.7,671.3,2096.5Zm10.2,49.6c6.6,12.9,13.8,36.2,13.3,42.7-.3,3.2-.7,3.8-3.8,4.9-3.7,1.2-19.4,1.5-24.5.4s-5.1-1.4,5.2-34.9c3.1-10,6-18.2,6.4-18.2S680.1,2143.3,681.5,2146.1Z"/><path class="cls-1" d="M737,2102.9c0,6.3.4,8.4,1.9,10.2,1.9,2.3,2.3,2.4,21,2.7l19.1.3V2254h24.7l.6-15.8c.4-8.6.7-24,.7-34.2s.3-33.6.7-52.1l.6-33.6,12.9-.7c15.2-.8,22.7-2.1,24.8-4.2,1-1,1.6-4.1,1.9-9.9l.3-8.5H737Z"/><path class="cls-1" d="M866,2174.5V2254h10.8c12.9,0,15.9-1.2,21.4-8.5,2.1-2.8,12.9-22.8,24-44.5s21.7-42.2,23.5-45.5l3.3-6v44c0,24.2.3,47.7.7,52.2l.6,8.3H975V2095h-8c-4.6,0-9.4.6-11.3,1.4-7.3,3.1-11.1,9.4-38.7,63.5l-20.5,40.3-.3-52.6L896,2095H866Z"/><path class="cls-1" d="M1008,2174.4V2254h28.3c41.1,0,44.8-.9,55.9-12.9s15.2-27.5,11.3-42.4c-2.1-8.2-4.8-13-11.1-19.8-3-3.2-5.4-6.8-5.4-8s2.2-4.4,5-7.3c5.8-6.2,8.7-12.1,9.8-20.5,1.8-12.7-2-25.9-9.9-34.5-9.4-10.3-18.7-12.5-56.6-13.3l-27.3-.6Zm53-55.8c3,.9,6.3,2.3,7.4,3.2,8.5,7.7,8.5,30.1-.1,35.8-4.2,2.8-13.5,4.4-25.8,4.4h-9.8l.5-20.3c.3-11.1.9-21,1.3-21.9C1036.1,2115.9,1049.2,2115.3,1061,2118.6Zm2.1,66.3c12,3.7,17.8,15.4,14.9,29.8-1,4.8-2,6.5-5.9,10.3-5.9,5.8-9.7,7-25.8,7.7l-13.3.6v-50.5l13.3.5C1053.5,2183.5,1061.1,2184.3,1063.1,2184.9Z"/><path class="cls-1" d="M1133,2174.5V2254h25v-71.3l17.8.7c22.5.9,33,2.2,36.2,4.5,2.5,1.8,2.5,1.8,3.1,23.7.4,12,.7,26.5.8,32.2l.1,10.3,12.8-.3,12.7-.3v-158l-13.7-.3-13.8-.3v64.8l-15.2.7c-8.4.3-21,.9-28,1.3l-12.8.6V2095h-25Z"/><path class="cls-1" d="M1270.5,2096.2c-.3.7-.4,36.4-.3,79.3l.3,78,28,.3c40.8.4,47.5-.8,58.5-10.2,11.2-9.5,15.3-17.9,16.5-33.8,1.2-15.4-3.3-29.2-12.6-38.7-10.1-10.3-21.2-14-44.6-14.8l-16.3-.6V2095h-14.5C1274.8,2095,1270.8,2095.3,1270.5,2096.2Zm60.6,84.7a26.58,26.58,0,0,1,12.3,8.4c1.9,2.5,2.1,4.2,2.1,15,0,11.2-.2,12.6-2.5,16.7a21.43,21.43,0,0,1-12.9,10c-2,.6-9.6,1.4-16.8,1.7l-13.3.6v-54.5l13.8.5C1321.3,2179.5,1329.1,2180.3,1331.1,2180.9Z"/><path class="cls-1" d="M1387,2174.5v79.6l12.8-.3,12.7-.3v-158l-12.7-.3-12.8-.3Z"/><path class="cls-1" d="M1437,2095.5c0,.3,5.3,10.6,11.7,22.8,12.7,24.2,20.2,39.8,23.9,49.5l2.4,6.2-3.7,9.2c-2,5.1-10.5,23.1-19,40l-15.2,30.8h10.2c12.8,0,16.7-1.1,20.7-5.7,2.9-3.2,14.3-25.7,21.6-42.5,1.6-3.7,3.2-6.8,3.5-6.8s3.9,7.5,7.9,16.7c13.3,30.4,15.9,34.8,22.3,37.2,2.8,1.1,26.7,1.6,26.7.6,0-.3-8.8-18.2-19.6-39.8l-19.6-39.2,19.6-39.3c10.8-21.5,19.6-39.4,19.6-39.7,0-1-22.5-.5-26.2.5-5.2,1.5-7.6,5.1-14.8,21.9-7.4,17.5-12.7,28.1-13.9,28.1-1.9,0-5.6-6-12.8-21-12-25.2-13.5-27.4-19.1-29C1459.5,2095,1437,2094.6,1437,2095.5Z"/><path class="cls-1" d="M1625,2174.5V2254h8c8.8,0,13.2-1.4,16.7-5.1,4-4.4,11.5-18.1,32.3-58.7l20.5-40.2.6,40.8c.3,22.4.7,45.8.8,51.9l.1,11.3h29V2095h-9.8c-7.5,0-10.5.4-13.2,1.8-6.4,3.4-9.7,9.3-47.8,83l-10,19.4-.7-26.4c-.3-14.4-.9-37.8-1.3-51.8l-.7-25.5-12.2-.3-12.3-.3Z"/><path class="cls-1" d="M1762,2174.5V2254h24.7l.6-8.8c.4-4.8.9-18.4,1.2-30.2s.8-23.3,1.1-25.6l.5-4.1,11.7-.6c6.4-.4,18.8-1,27.4-1.3l15.8-.7.2,35.4.3,35.4,12.8.3,12.7.3V2094.9l-12.7.3-12.8.3-.3,33.2-.2,33.3h-57l-.2-33.3-.3-33.2-12.7-.3-12.8-.3Z"/><path class="cls-1" d="M1925,2109.6c0,32.3-2.8,66.8-7.1,87.9-4.3,20.9-9.5,32.2-16.4,35.1-5.1,2.1-5.7,5.7-5.9,36.4l-.1,26.5,10.3-.1c15,0,14.6.6,15-22.9l.4-18.5H2004v42.3l3.8-.6c2-.3,8-.9,13.4-1.3l9.6-.7.6-4.1c.3-2.2.8-14.8,1.2-27.8.9-29.4,1.1-28.8-10.1-28.8H2015l-.2-67.8-.3-67.7-15.5-.6c-8.5-.4-28.7-1-44.7-1.4l-29.3-.7Zm62,64.9V2233h-26.6c-20.9,0-26.5-.3-26.1-1.3,10.1-23.5,12.4-34.9,15.2-74.7,1.8-25.9,3-33.3,6-36.7,2.6-3.2,7-4,20.8-4.2l10.7-.1Z"/><path class="cls-1" d="M2046,2095.6c0,1,11,29.9,24.5,64.4,14.1,36.1,16.8,45.1,16.9,56.5.1,11.8-2,14.7-14.4,20-4.2,1.8-6.5,6.1-6.5,12.2,0,7.1,2.3,9.3,9.7,9.3,15.8,0,23.8-9.1,37.4-42.5,13.6-33.6,41.5-115.8,39.8-117.5-1.9-1.9-8.4-3-18.1-3h-9.2l-2.5,8.2c-11.7,39-16.6,54.2-20.1,62.3l-1.8,4-2.3-5.1c-1.2-2.9-5.9-15.9-10.4-29-9.2-26.8-12.9-34.8-17.3-37C2067.8,2096.3,2046,2094,2046,2095.6Z"/><path class="cls-1" d="M2291,2101.4c0,8,1.4,12,4.8,13.6,1.5.6,10,1.7,18.8,2.3l16.2,1.1.6,35c.3,19.3.9,49.8,1.2,67.8l.7,32.8H2358V2116h18.5c18.4,0,18.6,0,21-2.5,2.2-2.2,2.5-3.2,2.5-10.5v-8H2291Z"/><path class="cls-1" d="M2420.5,2096.2c-.3.7-.4,36.4-.3,79.3l.3,78,12.8.3,12.7.3v-57.8l18.3-.6c27.1-.9,37.7-4.2,46.6-14.3,12.7-14.5,16.7-32.5,11.2-50.4-7.2-23.6-18.5-32-47.1-35C2460.6,2094.5,2421.1,2094.7,2420.5,2096.2Zm58.4,22.6c11.1,3.3,16.1,11.8,16.1,27.6,0,9.3-1.1,14-4.3,18.6-5.1,7.6-12.5,9.6-30.6,8.1a112.35,112.35,0,0,1-11.7-1.3c-.2-.3-.9-9-1.5-19.4-1.3-22.9-.6-29.8,3.3-32.7C2455.3,2115.9,2467.9,2115.5,2478.9,2118.8Z"/><path class="cls-1" d="M2550.8,2096.1c-1.4.6-2.8,1.5-3,2.2s-.1,7.3.3,14.7.8,37.1.8,66,.4,57.6.8,63.7l.6,11.3h7.9c8.6,0,13.1-1.4,16.5-5.1,4-4.4,11.5-18.1,32.3-58.7l20.5-40.2.6,40.8c.3,22.4.7,45.8.8,52.1l.1,11.4,7.8-.7c4.2-.3,10.2-.9,13.3-1.2l5.7-.6.6-16.2c.3-8.8.8-44.1,1.1-78.4l.6-62.2H2648c-19.5,0-18.4-1.3-52.7,66.3l-19.8,39.2-.3-52.8-.2-52.7-10.8.1C2558.3,2095.1,2552.3,2095.6,2550.8,2096.1Z"/><path class="cls-1" d="M2687,2174.5V2254h9.8c11.8,0,15-1.4,20.4-8.5,2.1-2.8,11.2-19.6,20.3-37.5,17.2-34,25.3-48.5,29.5-52.9l2.5-2.6.5,50.5.5,50.5,12.8.3,12.7.3V2094.8l-10.9.4c-9.1.2-11.4.6-13.8,2.4-5.3,3.8-12.7,16.8-35.5,61.8l-22.7,45.1-.3-54.5-.3-54.5-12.7-.3-12.8-.3Z"/><path class="cls-1" d="M1603.3,2376.5c-6,2.6-11.3,16-35.8,91.5-9.6,29.4-18.3,56.2-19.5,59.4-2.8,8.2-1.9,9,10.3,9.4,14.6.4,15.8-.8,21.9-22.1l4.2-14.7h48.5l1,3.7c6.9,26.8,8.1,30,12.1,32,3.8,1.9,20.4,1.7,22.4-.3a4.81,4.81,0,0,0,1.6-2.8c0-4.4-35.1-111.6-43.9-134.1-6-15.4-8-18.9-12.3-21.5C1610,2374.7,1607.7,2374.6,1603.3,2376.5ZM1615,2437c4.7,15,8.7,30.2,9.2,35,.3,3.2,0,3.6-3.2,4.7-3.6,1.2-22.8,1.7-26.7.7a2.8,2.8,0,0,1-2.3-2.9c0-5,11.4-44.5,14.7-50.9,1.5-2.9,1.6-2.9,3-1C1610.5,2423.6,1612.9,2430.1,1615,2437Z"/><path class="cls-1" d="M1728.3,2376.5a50.91,50.91,0,0,0-17,7.6c-14.8,9.9-20.6,20.4-23.3,42.1-1.7,13.2-.7,58.2,1.4,69.5,5.6,29.1,18.8,41.3,46.6,43,28.3,1.7,45.8-8.2,53.5-30.3,5.5-15.9,7.8-45.4,5.6-72.4-2.1-26.3-5.2-35.1-15.7-45.5C1766.4,2377.5,1745.6,2371.9,1728.3,2376.5Zm20.5,23c16.2,4.8,21.2,19.5,21.2,61.7,0,23.2-1.1,32.4-5.1,40.5-4.9,10.1-11.8,14.3-23.6,14.3-15.1,0-23.2-9.1-26.9-30-2.1-12.2-1.5-51.6,1-62.3,1.9-8.4,6.1-17.8,9.1-20.7C1729.6,2398.2,1739.5,2396.8,1748.8,2399.5Z"/><path class="cls-1" d="M1256.9,2377.8l-2.2,1.9,3.4,9.9c2.9,8.5,15,33.4,28.5,59l3.8,7-20.2,40.1c-11.1,22.1-20.2,40.4-20.2,40.7s5.3.6,11.8.6c17.5,0,17,.4,31.5-29,9.1-18.6,12.5-23.9,14.7-22.5,1.5.9,7.8,14.3,14.5,30.5,8.4,20.6,8.8,21,26.5,21,9.5,0,12.2-.3,12.6-1.4.3-.8-6.4-15.1-14.9-31.8s-17-33.8-18.8-38.2l-3.3-7.8,1.8-5.2c1-2.8,8.2-18.4,16.1-34.6,15-30.9,18.3-38.6,17.1-39.8s-20.6-.6-25.1.6c-3.9,1.2-4.1,1.4-9.9,14.4-3.3,7.3-8.9,19.5-12.5,27l-6.6,13.7-9.4-21.9c-5.1-12-10.8-24.5-12.6-27.6-3.1-5.7-3.3-5.9-9.1-7.1C1265.6,2375.5,1259.6,2375.7,1256.9,2377.8Z"/><path class="cls-1" d="M1388.9,2376.7c-3,.3-3.8.9-4.4,3.1-.4,1.5-.9,37.5-1.2,79.9l-.5,77.3h27.5l-.6-51.8-.6-51.7,14.2,42.5c18.8,56.1,20.6,59.8,29,60.7,12.4,1.4,13.3-.5,34.2-70.6,5.7-19.5,10.6-35.6,10.8-35.8s.7,15.5,1.1,34.9.9,43.5,1.3,53.5l.6,18.3h25l-.7-50.8c-.3-27.9-.9-64.1-1.2-80.5l-.7-29.7h-9.6c-20.2.1-23.1,4.2-39,55.7-11.5,37.1-18.1,55.3-20.2,55.3-1.6,0-8.4-19.7-21.9-64-14-45.8-13.6-44.7-17.3-45.3C1409.8,2376.8,1393,2376.2,1388.9,2376.7Z"/></svg>