<?xml version="1.0" standalone="no"?>
<!DOCTYPE svg PUBLIC "-//W3C//DTD SVG 20010904//EN"
 "http://www.w3.org/TR/2001/REC-SVG-20010904/DTD/svg10.dtd">
<svg version="1.0" xmlns="http://www.w3.org/2000/svg"
 width="3106.000000pt" height="2676.000000pt" viewBox="0 0 3106.000000 2676.000000"
 preserveAspectRatio="xMidYMid meet">

<g transform="translate(0.000000,2676.000000) scale(0.100000,-0.100000)"
fill="#000000" stroke="none">
<path d="M13155 24530 c-2101 -264 -5330 -670 -7175 -902 l-3355 -423 -3
-5888 -2 -5887 59 0 c97 0 836 -45 6536 -400 2299 -143 4199 -263 4222 -266
l41 -5 6 -132 c4 -73 11 -888 16 -1812 9 -1493 16 -1864 34 -1882 6 -6 14 -5
5971 738 2646 330 5624 701 6620 825 995 124 1812 228 1814 230 11 11 20 2987
20 7202 1 3642 -2 4563 -11 4567 -11 3 -4628 292 -7263 455 -1440 89 -3277
195 -3485 202 l-85 3 -7 -70 c-16 -170 -28 -2868 -28 -6544 l0 -3984 -207 6
c-263 8 -1438 79 -3221 196 -73 5 -136 12 -140 16 -12 12 -15 8404 -3 9410 11
898 19 1121 42 1178 l12 28 81 -6 c44 -3 338 -21 651 -41 314 -19 847 -52
1185 -74 864 -56 1449 -90 1531 -90 l69 0 0 1638 c0 1514 -7 2054 -28 2152 -7
31 -11 35 -42 37 -19 1 -1754 -214 -3855 -477z"/>
<path d="M4276 8539 c-343 -84 -459 -323 -443 -908 6 -226 22 -305 87 -436 96
-194 255 -296 460 -296 256 1 470 177 541 448 41 153 37 537 -7 752 -29 140
-49 178 -143 271 -94 94 -183 148 -287 175 -74 19 -110 18 -208 -6z m195 -244
c49 -7 114 -56 138 -102 40 -79 46 -143 46 -468 0 -263 -3 -322 -18 -387 -21
-90 -58 -146 -113 -174 -54 -26 -213 -26 -264 0 -126 65 -151 162 -151 579 0
278 9 363 41 428 33 64 108 115 189 129 45 8 60 7 132 -5z"/>
<path d="M2620 7726 l0 -796 152 0 151 0 -6 98 c-4 53 -10 195 -14 314 -7 238
-5 248 48 248 62 0 148 -107 305 -380 103 -179 158 -243 224 -260 48 -13 214
-19 225 -8 9 9 -21 66 -247 461 -110 193 -201 357 -201 362 0 6 57 107 128
225 71 118 164 278 207 355 91 162 91 159 -28 170 -93 9 -153 0 -195 -28 -34
-24 -93 -117 -199 -319 -122 -232 -189 -313 -226 -276 -28 27 -35 90 -42 348
l-7 255 -60 6 c-33 4 -95 10 -137 14 l-78 7 0 -796z"/>
<path d="M5385 8508 c-2 -7 -15 -217 -30 -466 -43 -754 -56 -815 -179 -875
-70 -35 -96 -73 -96 -140 0 -71 29 -97 108 -97 121 0 211 46 271 139 94 147
135 376 161 911 6 118 13 239 16 268 l5 52 180 0 179 0 0 -685 0 -685 125 0
125 0 0 795 0 795 -430 0 c-336 0 -432 -3 -435 -12z"/>
<path d="M6800 8508 c0 -7 -9 -130 -20 -273 -11 -143 -25 -366 -30 -495 -5
-131 -16 -266 -24 -306 -38 -181 -91 -274 -167 -294 -28 -8 -43 -19 -49 -36
-12 -30 -13 -124 -2 -140 14 -22 52 -34 105 -34 199 0 310 140 367 465 26 147
35 248 56 604 l18 301 178 0 178 0 0 -685 0 -685 130 0 130 0 -2 793 -3 792
-432 3 c-343 2 -433 0 -433 -10z"/>
<path d="M8000 7725 l0 -795 441 0 442 0 -5 81 c-8 130 10 123 -338 127 l-290
3 0 249 0 249 249 3 c297 4 291 2 291 104 0 98 0 98 -297 102 l-243 3 0 225 0
224 208 1 c261 1 377 10 400 32 12 13 16 36 17 99 l0 83 -437 3 -438 2 0 -795z"/>
<path d="M9459 8511 c-90 -8 -129 -29 -129 -69 0 -38 -27 -387 -45 -577 -38
-392 -91 -616 -165 -693 -12 -12 -35 -25 -51 -29 -61 -12 -64 -27 -67 -346
l-3 -289 100 4 c84 2 104 6 120 23 23 23 36 101 46 266 l7 106 186 6 c103 4
294 10 425 13 l237 7 0 -164 c0 -203 7 -234 58 -249 20 -6 73 -10 117 -8 l80
3 3 181 c1 100 -1 232 -6 293 -10 126 -23 151 -77 151 -48 0 -64 25 -75 121
-6 46 -10 348 -10 672 l0 587 -337 -2 c-186 0 -372 -4 -414 -7z m491 -792 l0
-582 -261 5 c-143 3 -263 9 -267 12 -3 4 10 57 31 119 65 199 97 400 123 767
9 129 18 241 20 248 2 9 47 12 179 12 l175 0 0 -581z"/>
<path d="M10587 8513 c-21 -2 -41 -11 -43 -18 -6 -15 123 -268 275 -540 l89
-159 -91 -181 c-50 -99 -142 -292 -203 -430 l-112 -250 111 -3 c186 -5 205 8
295 198 142 302 192 397 224 427 44 42 86 51 118 25 33 -26 38 -82 39 -394 l1
-258 124 0 124 0 4 303 c5 325 9 350 56 362 53 13 120 -71 198 -245 25 -58 69
-157 97 -220 31 -69 66 -131 88 -155 l38 -40 129 0 c72 0 134 3 138 7 9 9 -34
107 -225 512 -83 176 -151 324 -151 330 0 6 85 173 188 371 104 198 185 361
181 363 -20 8 -250 -18 -283 -32 -44 -18 -85 -81 -151 -231 -72 -166 -153
-319 -190 -359 -41 -46 -80 -49 -97 -8 -7 17 -13 135 -16 330 l-4 302 -123 0
-123 0 -6 -187 c-13 -369 -30 -463 -85 -471 -50 -8 -95 64 -217 345 -100 232
-131 281 -185 300 -33 11 -132 14 -212 6z"/>
<path d="M27063 6220 c-34 -14 -29 -46 17 -116 84 -129 173 -177 325 -178 190
-1 328 84 342 208 4 35 1 48 -16 65 -43 43 -124 20 -210 -62 -64 -60 -108 -82
-148 -72 -15 3 -54 35 -87 70 -49 51 -71 66 -115 79 -61 18 -76 19 -108 6z"/>
<path d="M22163 5825 c-152 -33 -289 -137 -357 -272 -71 -142 -99 -298 -99
-558 0 -337 54 -514 199 -658 195 -194 538 -198 730 -10 81 80 173 290 151
346 -12 32 -57 51 -123 51 -83 0 -109 -19 -154 -110 -49 -100 -81 -138 -142
-168 -72 -36 -146 -36 -219 2 -48 24 -58 35 -86 92 -42 85 -53 154 -60 395 -6
208 6 398 30 492 32 121 98 168 237 167 143 -1 196 -43 241 -194 28 -93 58
-126 123 -135 56 -9 121 -2 141 15 31 26 5 184 -46 280 -41 77 -147 178 -231
219 -66 33 -179 61 -238 60 -19 0 -63 -7 -97 -14z"/>
<path d="M2620 5015 l0 -795 88 0 c107 0 148 17 177 75 18 37 20 60 20 275 1
243 8 300 43 319 50 28 129 -73 282 -359 113 -213 146 -260 200 -288 41 -21
55 -23 150 -20 59 3 111 8 118 12 9 5 6 18 -9 49 -25 48 -212 376 -348 607
l-90 154 29 51 c181 306 381 668 378 682 -4 21 -52 32 -156 32 -137 2 -161
-21 -299 -294 -134 -266 -206 -375 -244 -375 -40 0 -44 32 -47 358 l-4 312
-144 0 -144 0 0 -795z"/>
<path d="M3870 5015 l0 -796 148 3 147 3 3 288 2 287 108 0 c358 0 532 83 602
285 41 118 36 324 -11 451 -17 46 -38 75 -98 134 -132 131 -167 139 -608 140
l-293 0 0 -795z m602 565 c89 -23 176 -159 186 -291 4 -60 1 -72 -24 -119 -20
-37 -45 -64 -80 -87 -76 -50 -130 -63 -266 -63 l-118 0 0 292 0 291 128 -6
c70 -3 148 -11 174 -17z"/>
<path d="M5160 5016 l0 -796 440 0 440 0 0 83 c0 128 19 121 -335 125 l-294 3
5 67 c3 37 9 143 14 236 5 92 10 169 12 171 2 2 95 8 208 14 225 12 272 21
295 54 17 24 20 99 5 127 -18 34 -65 40 -307 40 l-234 0 5 33 c3 17 8 93 11
167 3 74 8 159 11 188 l6 52 87 0 c141 0 423 19 458 31 41 13 53 35 53 96 0
100 9 97 -472 101 l-408 4 0 -796z"/>
<path d="M6713 5795 c-43 -18 -77 -93 -153 -340 -52 -169 -231 -736 -355
-1125 l-34 -105 97 -3 c112 -4 163 8 186 43 9 13 27 64 41 112 31 112 51 149
84 161 14 6 87 13 161 17 74 3 166 11 204 17 94 15 89 22 161 -235 9 -32 27
-70 40 -85 23 -26 26 -27 130 -27 92 0 108 3 120 18 8 11 12 24 10 30 -212
669 -407 1266 -437 1344 -44 115 -73 162 -108 180 -33 17 -107 16 -147 -2z
m102 -496 c66 -129 138 -362 133 -427 -3 -32 -7 -38 -38 -49 -37 -12 -194 -15
-245 -4 -51 11 -51 14 52 349 31 100 60 182 64 182 5 0 20 -23 34 -51z"/>
<path d="M7370 5731 c0 -63 4 -84 19 -102 19 -23 23 -24 210 -27 l191 -3 0
-690 0 -689 123 0 124 0 6 158 c4 86 7 240 7 342 0 102 3 336 7 521 l6 336
129 7 c152 8 227 21 248 42 10 10 16 41 19 99 l3 85 -546 0 -546 0 0 -79z"/>
<path d="M8660 5015 l0 -795 108 0 c129 0 159 12 214 85 21 28 129 228 240
445 111 217 217 422 235 455 l33 60 0 -440 c0 -242 3 -477 7 -522 l6 -83 123
0 124 0 0 795 0 795 -80 0 c-46 0 -94 -6 -113 -14 -73 -31 -111 -94 -387 -635
l-205 -403 -3 526 -2 526 -150 0 -150 0 0 -795z"/>
<path d="M10080 5016 l0 -796 283 0 c411 0 448 9 559 129 111 119 152 275 113
424 -21 82 -48 130 -111 198 -30 32 -54 68 -54 80 0 11 22 44 50 73 58 62 87
121 98 205 18 127 -20 259 -99 345 -94 103 -187 125 -566 133 l-273 6 0 -797z
m530 558 c30 -9 63 -23 74 -32 85 -77 85 -301 -1 -358 -42 -28 -135 -44 -258
-44 l-98 0 5 203 c3 111 9 210 13 219 16 39 147 45 265 12z m21 -663 c120 -37
178 -154 149 -298 -10 -48 -20 -65 -59 -103 -59 -58 -97 -70 -258 -77 l-133
-6 0 253 0 252 133 -5 c72 -2 148 -10 168 -16z"/>
<path d="M11330 5015 l0 -795 125 0 125 0 0 356 0 357 178 -7 c225 -9 330 -22
362 -45 25 -18 25 -18 31 -237 4 -120 7 -265 8 -322 l1 -103 128 3 127 3 0
790 0 790 -137 3 -138 3 0 -324 0 -324 -152 -7 c-84 -3 -210 -9 -280 -13
l-128 -6 0 337 0 336 -125 0 -125 0 0 -795z"/>
<path d="M12705 5798 c-3 -7 -4 -364 -3 -793 l3 -780 280 -3 c408 -4 475 8
585 102 112 95 153 179 165 338 12 154 -33 292 -126 387 -101 103 -212 140
-446 148 l-163 6 0 303 0 304 -145 0 c-107 0 -147 -3 -150 -12z m606 -847 c47
-15 97 -49 123 -84 19 -25 21 -42 21 -150 0 -112 -2 -126 -25 -167 -27 -48
-73 -84 -129 -100 -20 -6 -96 -14 -168 -17 l-133 -6 0 273 0 272 138 -5 c75
-2 153 -10 173 -16z"/>
<path d="M13870 5015 l0 -796 128 3 127 3 0 790 0 790 -127 3 -128 3 0 -796z"/>
<path d="M14370 5805 c0 -3 53 -106 117 -228 127 -242 202 -398 239 -495 l24
-62 -37 -92 c-20 -51 -105 -231 -190 -400 l-152 -308 102 0 c128 0 167 11 207
57 29 32 143 257 216 425 16 37 32 68 35 68 3 0 39 -75 79 -167 133 -304 159
-348 223 -372 28 -11 267 -16 267 -6 0 3 -88 182 -196 398 l-196 392 196 393
c108 215 196 394 196 397 0 10 -225 5 -262 -5 -52 -15 -76 -51 -148 -219 -74
-175 -127 -281 -139 -281 -19 0 -56 60 -128 210 -120 252 -135 274 -191 290
-37 10 -262 14 -262 5z"/>
<path d="M16250 5015 l0 -795 80 0 c88 0 132 14 167 51 40 44 115 181 323 587
l205 402 6 -408 c3 -224 7 -458 8 -519 l1 -113 145 0 145 0 0 795 0 795 -98 0
c-75 0 -105 -4 -132 -18 -64 -34 -97 -93 -478 -830 l-100 -194 -7 264 c-3 144
-9 378 -13 518 l-7 255 -122 3 -123 3 0 -796z"/>
<path d="M17620 5015 l0 -795 124 0 123 0 6 88 c4 48 9 184 12 302 3 118 8
233 11 256 l5 41 117 6 c64 4 188 10 274 13 l158 7 2 -354 3 -354 128 -3 127
-3 0 796 0 796 -127 -3 -128 -3 -3 -332 -2 -333 -285 0 -285 0 -2 333 -3 332
-127 3 -128 3 0 -796z"/>
<path d="M19250 5664 c0 -323 -28 -668 -71 -879 -43 -209 -95 -322 -164 -351
-51 -21 -57 -57 -59 -364 l-1 -265 103 1 c150 0 146 -6 150 229 l4 185 414 0
414 0 0 -211 0 -212 38 6 c20 3 80 9 134 13 l96 7 6 41 c3 22 8 148 12 278 9
294 11 288 -101 288 l-75 0 -2 678 -3 677 -155 6 c-85 4 -287 10 -447 14
l-293 7 0 -148z m620 -649 l0 -585 -266 0 c-209 0 -265 3 -261 13 101 235 124
349 152 747 18 259 30 333 60 367 26 32 70 40 208 42 l107 1 0 -585z"/>
<path d="M20460 5804 c0 -10 110 -299 245 -644 141 -361 168 -451 169 -565 1
-118 -20 -147 -144 -200 -42 -18 -65 -61 -65 -122 0 -71 23 -93 97 -93 158 0
238 91 374 425 136 336 415 1158 398 1175 -19 19 -84 30 -181 30 l-92 0 -25
-82 c-117 -390 -166 -542 -201 -623 l-18 -40 -23 51 c-12 29 -59 159 -104 290
-92 268 -129 348 -173 370 -39 21 -257 44 -257 28z"/>
<path d="M22910 5746 c0 -80 14 -120 48 -136 15 -6 100 -17 188 -23 l162 -11
6 -350 c3 -193 9 -498 12 -678 l7 -328 123 0 124 0 0 690 0 690 185 0 c184 0
186 0 210 25 22 22 25 32 25 105 l0 80 -545 0 -545 0 0 -64z"/>
<path d="M24205 5798 c-3 -7 -4 -364 -3 -793 l3 -780 128 -3 127 -3 0 289 0
289 183 6 c271 9 377 42 466 143 127 145 167 325 112 504 -72 236 -185 320
-471 350 -144 15 -539 13 -545 -2z m584 -226 c111 -33 161 -118 161 -276 0
-93 -11 -140 -43 -186 -51 -76 -125 -96 -306 -81 -62 5 -114 11 -117 13 -2 3
-9 90 -15 194 -13 229 -6 298 33 327 51 38 177 42 287 9z"/>
<path d="M25508 5799 c-14 -6 -28 -15 -30 -22 -3 -7 -1 -73 3 -147 4 -74 8
-371 8 -660 1 -289 4 -576 8 -637 l6 -113 79 0 c86 0 131 14 165 51 40 44 115
181 323 587 l205 402 6 -408 c3 -224 7 -458 8 -521 l1 -114 78 7 c42 3 102 9
133 12 l57 6 6 162 c3 88 8 441 11 784 l6 622 -101 0 c-195 0 -184 13 -527
-663 l-198 -392 -3 528 -2 527 -108 -1 c-59 0 -119 -5 -134 -10z"/>
<path d="M26870 5015 l0 -795 98 0 c118 0 150 14 204 85 21 28 112 196 203
375 172 340 253 485 295 529 l25 26 5 -505 5 -505 128 -3 127 -3 0 797 0 796
-109 -4 c-91 -2 -114 -6 -138 -24 -53 -38 -127 -168 -355 -618 l-227 -451 -3
545 -3 545 -127 3 -128 3 0 -796z"/>
<path d="M16033 2995 c-60 -26 -113 -160 -358 -915 -96 -294 -183 -562 -195
-594 -28 -82 -19 -90 103 -94 146 -4 158 8 219 221 l42 147 243 0 242 0 10
-37 c69 -268 81 -300 121 -320 38 -19 204 -17 224 3 9 8 16 21 16 28 0 44
-351 1116 -439 1341 -60 154 -80 189 -123 215 -38 23 -61 24 -105 5z m117
-605 c47 -150 87 -302 92 -350 3 -32 0 -36 -32 -47 -36 -12 -228 -17 -267 -7
-15 4 -23 14 -23 29 0 50 114 445 147 509 15 29 16 29 30 10 8 -10 32 -75 53
-144z"/>
<path d="M17283 2995 c-73 -20 -115 -39 -170 -76 -148 -99 -206 -204 -233
-421 -17 -132 -7 -582 14 -695 56 -291 188 -413 466 -430 283 -17 458 82 535
303 55 159 78 454 56 724 -21 263 -52 351 -157 455 -130 130 -338 186 -511
140z m205 -230 c162 -48 212 -195 212 -617 0 -232 -11 -324 -51 -405 -49 -101
-118 -143 -236 -143 -151 0 -232 91 -269 300 -21 122 -15 516 10 623 19 84 61
178 91 207 51 48 150 62 243 35z"/>
<path d="M12569 2982 l-22 -19 34 -99 c29 -85 150 -334 285 -590 l38 -70 -202
-401 c-111 -221 -202 -404 -202 -407 0 -3 53 -6 118 -6 175 0 170 -4 315 290
91 186 125 239 147 225 15 -9 78 -143 145 -305 84 -206 88 -210 265 -210 95 0
122 3 126 14 3 8 -64 151 -149 318 -86 167 -170 338 -188 382 l-33 78 18 52
c10 28 82 184 161 346 150 309 183 386 171 398 -12 11 -206 6 -251 -6 -39 -12
-41 -14 -99 -144 -33 -73 -89 -195 -125 -270 l-66 -137 -94 219 c-51 120 -108
245 -126 276 -31 57 -33 59 -91 71 -88 18 -148 16 -175 -5z"/>
<path d="M13889 2993 c-30 -3 -38 -9 -44 -31 -4 -15 -9 -375 -12 -799 l-5
-773 138 0 137 0 -6 518 -6 517 142 -425 c188 -561 206 -598 290 -607 124 -14
133 5 342 706 57 195 106 356 108 358 2 2 7 -155 11 -349 3 -194 9 -435 13
-535 l6 -183 125 0 125 0 -7 508 c-3 279 -9 641 -12 805 l-7 297 -96 0 c-202
-1 -231 -42 -390 -557 -115 -371 -181 -553 -202 -553 -16 0 -84 197 -219 640
-140 458 -136 447 -173 453 -49 9 -217 15 -258 10z"/>
</g>
</svg>
