<svg width="40" height="36" viewBox="0 0 40 36" fill="none" xmlns="http://www.w3.org/2000/svg">
<path d="M38.8688 0.862571C38.5588 0.594762 38.1815 0.41692 37.7777 0.348329C37.3738 0.279737 36.9589 0.323016 36.5779 0.473471L1.97349 14.0681C1.52113 14.2458 1.13847 14.5653 0.882781 14.9786C0.627092 15.3919 0.51212 15.8769 0.555069 16.361C0.598018 16.8451 0.796578 17.3023 1.12104 17.6642C1.4455 18.026 1.87841 18.2731 2.35499 18.3684L11.7477 20.247V31.8407C11.743 32.2868 11.873 32.7238 12.1209 33.0947C12.3687 33.4656 12.7227 33.753 13.1366 33.9193C13.4139 34.0354 13.7113 34.0956 14.0119 34.0964C14.3057 34.0955 14.5963 34.0362 14.867 33.9221C15.1376 33.808 15.383 33.6412 15.5887 33.4315L20.9504 28.0698L28.8617 35.0317C29.2694 35.3938 29.7955 35.594 30.3407 35.5946C30.5778 35.5943 30.8133 35.5569 31.0387 35.4838C31.4106 35.3659 31.745 35.1525 32.0086 34.865C32.2723 34.5775 32.4559 34.2258 32.5412 33.8452L39.5938 3.07027C39.6859 2.67116 39.667 2.25446 39.5392 1.86531C39.4114 1.47616 39.1796 1.12939 38.8688 0.862571ZM2.0492 16.2284C2.03055 16.0664 2.06708 15.9028 2.15289 15.7641C2.2387 15.6254 2.36877 15.5198 2.52208 15.4641L34.2424 3.00248L12.3237 18.8326L2.64915 16.8977C2.48844 16.8699 2.3418 16.7887 2.23294 16.6672C2.12407 16.5458 2.05934 16.3912 2.0492 16.2284ZM14.5279 32.371C14.4231 32.4759 14.2894 32.5473 14.1439 32.5763C13.9985 32.6052 13.8477 32.5904 13.7106 32.5336C13.5736 32.4768 13.4565 32.3807 13.3741 32.2574C13.2916 32.134 13.2477 31.9891 13.2477 31.8407V21.2912L19.8222 27.0769L14.5279 32.371ZM38.1317 2.73519L31.0791 33.5101C31.0501 33.6367 30.9886 33.7536 30.9008 33.8494C30.813 33.9452 30.7019 34.0165 30.5782 34.0563C30.4546 34.0962 30.3227 34.1033 30.1955 34.0769C30.0683 34.0504 29.9501 33.9914 29.8526 33.9056L13.6986 19.69L38.0105 2.13159C38.0744 2.21678 38.1185 2.31521 38.1395 2.41965C38.1605 2.52409 38.1578 2.63191 38.1317 2.73519Z" fill="white"/>
</svg>
