<svg width="1083" height="240" viewBox="0 0 1083 240" fill="none" xmlns="http://www.w3.org/2000/svg">
<path fill-rule="evenodd" clip-rule="evenodd" d="M96 24L0 36V114L72 118.5V144L168 132V54L96 49.5V24ZM96 49.5L72 48V118.5L96 120V49.5Z" fill="white"/>
<path d="M225.375 9.07812V56H217.544V9.07812H225.375ZM248.804 9.07812L233.142 35.9229H223.119L221.991 28.7041H228.759L239.265 9.07812H248.804ZM240.65 56L228.984 34.6338L234.012 28.3174L250.028 56H240.65ZM285.316 28.7041V36.6963C285.316 40.0049 284.93 42.9053 284.156 45.3975C283.404 47.8896 282.309 49.9736 280.869 51.6494C279.451 53.3037 277.732 54.5498 275.713 55.3877C273.715 56.2256 271.48 56.6445 269.01 56.6445C266.561 56.6445 264.326 56.2256 262.307 55.3877C260.309 54.5498 258.579 53.3037 257.118 51.6494C255.679 49.9736 254.562 47.8896 253.767 45.3975C252.993 42.9053 252.606 40.0049 252.606 36.6963V28.7041C252.606 25.3525 252.993 22.4199 253.767 19.9062C254.54 17.3711 255.646 15.2549 257.086 13.5576C258.547 11.8604 260.276 10.582 262.274 9.72266C264.294 8.86328 266.518 8.43359 268.945 8.43359C271.416 8.43359 273.65 8.86328 275.648 9.72266C277.668 10.582 279.397 11.8604 280.837 13.5576C282.276 15.2549 283.383 17.3711 284.156 19.9062C284.93 22.4199 285.316 25.3525 285.316 28.7041ZM277.55 36.6963V28.6396C277.55 26.2549 277.356 24.2139 276.97 22.5166C276.604 20.7979 276.057 19.4014 275.326 18.3271C274.596 17.2314 273.693 16.4258 272.619 15.9102C271.566 15.373 270.342 15.1045 268.945 15.1045C267.592 15.1045 266.378 15.373 265.304 15.9102C264.251 16.4258 263.349 17.2314 262.597 18.3271C261.866 19.4014 261.308 20.7979 260.921 22.5166C260.556 24.2139 260.373 26.2549 260.373 28.6396V36.6963C260.373 39.0381 260.566 41.0576 260.953 42.7549C261.34 44.4307 261.898 45.8057 262.629 46.8799C263.381 47.9326 264.294 48.7168 265.368 49.2324C266.442 49.748 267.656 50.0059 269.01 50.0059C270.385 50.0059 271.609 49.748 272.684 49.2324C273.758 48.7168 274.649 47.9326 275.358 46.8799C276.089 45.8057 276.637 44.4307 277.002 42.7549C277.367 41.0576 277.55 39.0381 277.55 36.6963ZM317.736 9.07812V15.6523H299.271V9.07812H317.736ZM323.827 9.07812V56H316.028V9.07812H323.827ZM297.756 9.07812H305.522L304.62 32.4424C304.491 35.8584 304.244 38.8662 303.879 41.4658C303.514 44.0439 303.009 46.2568 302.364 48.1045C301.72 49.9521 300.893 51.4561 299.883 52.6162C298.895 53.7764 297.713 54.6357 296.338 55.1943C294.984 55.7314 293.416 56 291.633 56H289.699V49.458L290.827 49.3291C291.729 49.2432 292.514 48.9746 293.18 48.5234C293.867 48.0723 294.437 47.3848 294.888 46.4609C295.36 45.5371 295.747 44.3555 296.048 42.916C296.349 41.4551 296.585 39.6826 296.757 37.5986C296.929 35.5146 297.047 33.0762 297.111 30.2832L297.756 9.07812ZM358.922 9.07812V15.6523H340.456V9.07812H358.922ZM365.013 9.07812V56H357.214V9.07812H365.013ZM338.941 9.07812H346.708L345.806 32.4424C345.677 35.8584 345.43 38.8662 345.064 41.4658C344.699 44.0439 344.194 46.2568 343.55 48.1045C342.905 49.9521 342.078 51.4561 341.068 52.6162C340.08 53.7764 338.898 54.6357 337.523 55.1943C336.17 55.7314 334.602 56 332.818 56H330.885V49.458L332.013 49.3291C332.915 49.2432 333.699 48.9746 334.365 48.5234C335.053 48.0723 335.622 47.3848 336.073 46.4609C336.546 45.5371 336.933 44.3555 337.233 42.916C337.534 41.4551 337.771 39.6826 337.942 37.5986C338.114 35.5146 338.232 33.0762 338.297 30.2832L338.941 9.07812ZM400.14 49.458V56H379.772V49.458H400.14ZM381.835 9.07812V56H374.004V9.07812H381.835ZM397.4 28.6074V35.0527H379.772V28.6074H397.4ZM399.946 9.07812V15.6523H379.772V9.07812H399.946ZM438.006 49.458V56H409.55V49.458H438.006ZM411.387 49.458V67.5371H403.91L403.588 49.458H411.387ZM444.064 49.458L443.581 67.5049H436.201V49.458H444.064ZM432.817 9.07812V15.6523H414.771V9.07812H432.817ZM438.876 9.07812V56H431.077V9.07812H438.876ZM413.224 9.07812H421.022L420.023 28.1562C419.873 31.1641 419.615 33.8711 419.25 36.2773C418.885 38.6836 418.434 40.832 417.896 42.7227C417.359 44.6133 416.758 46.2783 416.092 47.7178C415.426 49.1357 414.706 50.3711 413.933 51.4238C413.181 52.4766 412.386 53.3789 411.548 54.1309C410.731 54.8828 409.915 55.5059 409.099 56H405.167V49.458H406.907C407.401 48.8994 407.917 48.126 408.454 47.1377C409.013 46.1279 409.539 44.8066 410.033 43.1738C410.549 41.5195 410.989 39.4678 411.354 37.0186C411.741 34.5693 412.021 31.6152 412.192 28.1562L413.224 9.07812ZM462.079 35.7939L447.706 9.07812H457.181L465.85 28.6396H473.294L472.134 35.7939H462.079ZM465.882 34.7305L456.633 56H446.933L460.049 29.1875L465.882 34.7305ZM477.709 9.07812V56H469.91V9.07812H477.709ZM499.623 9.07812L485.379 35.7939H475.518L474.325 28.6396H481.641L490.148 9.07812H499.623ZM490.696 56L481.608 34.7305L487.441 29.1875L500.396 56H490.696ZM225.375 81.0781V128H217.544V81.0781H225.375ZM248.804 81.0781L233.142 107.923H223.119L221.991 100.704H228.759L239.265 81.0781H248.804ZM240.65 128L228.984 106.634L234.012 100.317L250.028 128H240.65ZM270.009 110.598H260.115V104.056H270.009C271.62 104.056 272.92 103.712 273.908 103.024C274.918 102.337 275.648 101.392 276.1 100.188C276.572 98.9854 276.809 97.6211 276.809 96.0957C276.809 94.6348 276.572 93.2598 276.1 91.9707C275.648 90.6816 274.929 89.6396 273.94 88.8447C272.952 88.0498 271.642 87.6523 270.009 87.6523H262.307V128H254.508V81.0781H270.009C273.103 81.0781 275.745 81.7227 277.937 83.0117C280.128 84.3008 281.804 86.0732 282.964 88.3291C284.124 90.5635 284.704 93.1309 284.704 96.0312C284.704 99.0605 284.124 101.66 282.964 103.83C281.804 106 280.128 107.676 277.937 108.857C275.745 110.018 273.103 110.598 270.009 110.598ZM317.769 121.458V128H297.401V121.458H317.769ZM299.464 81.0781V128H291.633V81.0781H299.464ZM315.029 100.607V107.053H297.401V100.607H315.029ZM317.575 81.0781V87.6523H297.401V81.0781H317.575ZM340.424 87.5234L329.08 128H320.895L335.783 81.0781H340.875L340.424 87.5234ZM349.479 128L338.104 87.5234L337.556 81.0781H342.744L357.697 128H349.479ZM349.673 110.565V117.14H327.823V110.565H349.673ZM376.099 81.0781V128H368.3V81.0781H376.099ZM388.055 81.0781V87.6523H356.473V81.0781H388.055ZM401.848 113.724L418.187 81.0781H425.76V128H418.09V95.5479L401.848 128H394.21V81.0781H401.848V113.724ZM449.801 106.859H440.229L440.197 100.865H448.673C449.983 100.865 451.101 100.607 452.024 100.092C452.948 99.5762 453.646 98.8242 454.119 97.8359C454.613 96.8477 454.86 95.6553 454.86 94.2588C454.86 92.7119 454.646 91.4551 454.216 90.4883C453.786 89.5 453.109 88.7803 452.186 88.3291C451.283 87.8779 450.123 87.6523 448.705 87.6523H442.55V128H434.719V81.0781H448.705C450.896 81.0781 452.852 81.3359 454.57 81.8516C456.311 82.3457 457.782 83.1084 458.985 84.1396C460.188 85.1709 461.102 86.4922 461.725 88.1035C462.369 89.6934 462.691 91.584 462.691 93.7754C462.691 95.6875 462.283 97.4492 461.467 99.0605C460.65 100.65 459.437 101.961 457.825 102.992C456.235 104.002 454.259 104.604 451.896 104.797L449.801 106.859ZM449.511 128H437.651L441.261 121.458H449.511C450.907 121.458 452.057 121.157 452.959 120.556C453.861 119.954 454.538 119.116 454.989 118.042C455.44 116.968 455.666 115.711 455.666 114.271C455.666 112.768 455.473 111.457 455.086 110.34C454.699 109.223 454.076 108.363 453.217 107.762C452.357 107.16 451.219 106.859 449.801 106.859H441.905L441.97 100.865H452.057L453.861 103.153C456.117 103.196 457.954 103.755 459.372 104.829C460.79 105.882 461.832 107.246 462.498 108.922C463.164 110.598 463.497 112.392 463.497 114.304C463.497 117.29 462.938 119.804 461.821 121.845C460.704 123.864 459.104 125.4 457.02 126.453C454.957 127.484 452.454 128 449.511 128ZM497.077 100.607V107.182H477.322V100.607H497.077ZM479.159 81.0781V128H471.328V81.0781H479.159ZM503.2 81.0781V128H495.401V81.0781H503.2ZM517.863 98.9639H527.563C530.593 98.9639 533.192 99.5654 535.362 100.769C537.532 101.972 539.187 103.647 540.325 105.796C541.485 107.944 542.065 110.469 542.065 113.369C542.065 115.518 541.732 117.483 541.066 119.267C540.422 121.05 539.466 122.597 538.198 123.907C536.952 125.218 535.438 126.228 533.654 126.937C531.871 127.646 529.841 128 527.563 128H512.288V81.0781H520.087V121.458H527.563C529.11 121.458 530.367 121.082 531.334 120.33C532.322 119.557 533.053 118.558 533.525 117.333C534.02 116.087 534.267 114.744 534.267 113.305C534.267 111.865 534.02 110.565 533.525 109.405C533.053 108.224 532.322 107.289 531.334 106.602C530.367 105.893 529.11 105.538 527.563 105.538H517.863V98.9639ZM553.087 81.0781V128H545.288V81.0781H553.087ZM569.265 81.0781L576.967 97.8037L584.476 81.0781H593.273L581.543 104.313L593.531 128H584.443L576.709 110.92L568.942 128H560.016L572.101 104.217L560.273 81.0781H569.265ZM622.277 113.724L638.616 81.0781H646.189V128H638.52V95.5479L622.277 128H614.64V81.0781H622.277V113.724ZM680.897 100.607V107.182H661.143V100.607H680.897ZM662.979 81.0781V128H655.148V81.0781H662.979ZM687.021 81.0781V128H679.222V81.0781H687.021ZM727.98 121.458V128H699.524V121.458H727.98ZM701.361 121.458V139.537H693.885L693.562 121.458H701.361ZM734.039 121.458L733.556 139.505H726.176V121.458H734.039ZM722.792 81.0781V87.6523H704.745V81.0781H722.792ZM728.851 81.0781V128H721.052V81.0781H728.851ZM703.198 81.0781H710.997L709.998 100.156C709.848 103.164 709.59 105.871 709.225 108.277C708.859 110.684 708.408 112.832 707.871 114.723C707.334 116.613 706.732 118.278 706.066 119.718C705.4 121.136 704.681 122.371 703.907 123.424C703.155 124.477 702.36 125.379 701.522 126.131C700.706 126.883 699.89 127.506 699.073 128H695.142V121.458H696.882C697.376 120.899 697.892 120.126 698.429 119.138C698.987 118.128 699.514 116.807 700.008 115.174C700.523 113.52 700.964 111.468 701.329 109.019C701.716 106.569 701.995 103.615 702.167 100.156L703.198 81.0781ZM752.086 111.597L761.561 81.0781H770.165L756.984 119.428C756.512 120.631 755.996 121.791 755.438 122.908C754.9 124.025 754.245 125.024 753.472 125.905C752.698 126.765 751.753 127.441 750.636 127.936C749.54 128.43 748.197 128.677 746.607 128.677C746.156 128.677 745.63 128.655 745.028 128.612C744.448 128.569 744.019 128.537 743.739 128.516L743.707 122.006C743.922 122.027 744.298 122.06 744.835 122.103C745.394 122.124 745.78 122.135 745.995 122.135C746.983 122.135 747.735 121.931 748.251 121.522C748.788 121.093 749.207 120.523 749.508 119.814C749.809 119.105 750.077 118.321 750.313 117.462L752.086 111.597ZM746.317 81.0781L755.083 106.73L757.242 115.464L751.184 115.689L737.81 81.0781H746.317ZM798.428 112.692H806.227C806.076 116.087 805.389 118.977 804.164 121.361C802.939 123.725 801.178 125.529 798.879 126.775C796.602 128.021 793.819 128.645 790.532 128.645C788.04 128.645 785.806 128.193 783.829 127.291C781.874 126.389 780.209 125.089 778.834 123.392C777.459 121.673 776.406 119.578 775.676 117.107C774.967 114.637 774.612 111.833 774.612 108.696V100.382C774.612 97.2451 774.978 94.4414 775.708 91.9707C776.46 89.5 777.534 87.4053 778.931 85.6865C780.327 83.9678 782.024 82.668 784.022 81.7871C786.042 80.8848 788.319 80.4336 790.854 80.4336C794.099 80.4336 796.827 81.0566 799.04 82.3027C801.253 83.5488 802.961 85.375 804.164 87.7812C805.367 90.1875 806.065 93.1201 806.259 96.5791H798.46C798.353 94.2373 798.03 92.3682 797.493 90.9717C796.978 89.5537 796.183 88.5332 795.108 87.9102C794.056 87.2871 792.638 86.9756 790.854 86.9756C789.372 86.9756 788.094 87.2549 787.02 87.8135C785.967 88.3721 785.097 89.21 784.409 90.3271C783.743 91.4229 783.238 92.8086 782.895 94.4844C782.572 96.1387 782.411 98.083 782.411 100.317V108.696C782.411 110.845 782.551 112.746 782.83 114.4C783.109 116.055 783.561 117.462 784.184 118.622C784.807 119.761 785.634 120.631 786.665 121.232C787.696 121.812 788.985 122.103 790.532 122.103C792.38 122.103 793.852 121.812 794.947 121.232C796.064 120.652 796.892 119.675 797.429 118.3C797.966 116.925 798.299 115.056 798.428 112.692ZM829.204 81.0781V128H821.405V81.0781H829.204ZM841.16 81.0781V87.6523H809.578V81.0781H841.16ZM862.849 110.598H852.955V104.056H862.849C864.46 104.056 865.76 103.712 866.748 103.024C867.758 102.337 868.488 101.392 868.939 100.188C869.412 98.9854 869.648 97.6211 869.648 96.0957C869.648 94.6348 869.412 93.2598 868.939 91.9707C868.488 90.6816 867.769 89.6396 866.78 88.8447C865.792 88.0498 864.481 87.6523 862.849 87.6523H855.146V128H847.348V81.0781H862.849C865.942 81.0781 868.585 81.7227 870.776 83.0117C872.968 84.3008 874.644 86.0732 875.804 88.3291C876.964 90.5635 877.544 93.1309 877.544 96.0312C877.544 99.0605 876.964 101.66 875.804 103.83C874.644 106 872.968 107.676 870.776 108.857C868.585 110.018 865.942 110.598 862.849 110.598ZM892.078 113.724L908.417 81.0781H915.99V128H908.32V95.5479L892.078 128H884.44V81.0781H892.078V113.724ZM932.555 113.724L948.894 81.0781H956.467V128H948.797V95.5479L932.555 128H924.917V81.0781H932.555V113.724ZM945.381 69.0576H951.182C951.182 70.8408 950.752 72.4199 949.893 73.7949C949.055 75.1699 947.852 76.2441 946.283 77.0176C944.736 77.791 942.889 78.1777 940.74 78.1777C937.518 78.1777 934.961 77.3291 933.07 75.6318C931.201 73.9346 930.267 71.7432 930.267 69.0576H936.067C936.067 70.2393 936.422 71.2812 937.131 72.1836C937.84 73.0859 939.043 73.5371 940.74 73.5371C942.438 73.5371 943.63 73.0859 944.317 72.1836C945.026 71.2812 945.381 70.2393 945.381 69.0576Z" fill="white"/>
<path d="M178.86 153.078L186.562 169.804L194.071 153.078H202.869L191.139 176.313L203.127 200H194.039L186.305 182.92L178.538 200H169.611L181.696 176.217L169.869 153.078H178.86ZM211.731 153.078H218.854L229.649 187.979L240.413 153.078H247.02L232.582 200H226.685L211.731 153.078ZM209.057 153.078H215.631L216.694 182.952V200H209.057V153.078ZM243.604 153.078H250.21V200H242.572V182.952L243.604 153.078ZM275.766 159.523L264.422 200H256.236L271.125 153.078H276.217L275.766 159.523ZM284.821 200L273.445 159.523L272.897 153.078H278.086L293.039 200H284.821ZM285.015 182.565V189.14H263.165V182.565H285.015ZM329.713 172.704V180.696C329.713 184.005 329.326 186.905 328.553 189.397C327.801 191.89 326.705 193.974 325.266 195.649C323.848 197.304 322.129 198.55 320.109 199.388C318.111 200.226 315.877 200.645 313.406 200.645C310.957 200.645 308.723 200.226 306.703 199.388C304.705 198.55 302.976 197.304 301.515 195.649C300.075 193.974 298.958 191.89 298.163 189.397C297.39 186.905 297.003 184.005 297.003 180.696V172.704C297.003 169.353 297.39 166.42 298.163 163.906C298.937 161.371 300.043 159.255 301.482 157.558C302.943 155.86 304.673 154.582 306.671 153.723C308.69 152.863 310.914 152.434 313.342 152.434C315.812 152.434 318.047 152.863 320.045 153.723C322.064 154.582 323.794 155.86 325.233 157.558C326.673 159.255 327.779 161.371 328.553 163.906C329.326 166.42 329.713 169.353 329.713 172.704ZM321.946 180.696V172.64C321.946 170.255 321.753 168.214 321.366 166.517C321.001 164.798 320.453 163.401 319.723 162.327C318.992 161.231 318.09 160.426 317.016 159.91C315.963 159.373 314.738 159.104 313.342 159.104C311.988 159.104 310.774 159.373 309.7 159.91C308.647 160.426 307.745 161.231 306.993 162.327C306.263 163.401 305.704 164.798 305.317 166.517C304.952 168.214 304.77 170.255 304.77 172.64V180.696C304.77 183.038 304.963 185.058 305.35 186.755C305.736 188.431 306.295 189.806 307.025 190.88C307.777 191.933 308.69 192.717 309.765 193.232C310.839 193.748 312.053 194.006 313.406 194.006C314.781 194.006 316.006 193.748 317.08 193.232C318.154 192.717 319.046 191.933 319.755 190.88C320.485 189.806 321.033 188.431 321.398 186.755C321.764 185.058 321.946 183.038 321.946 180.696ZM350.692 176.797V183.113H336.094V176.797H350.692ZM366.097 153.078V200H358.298V153.078H366.097ZM374.121 174.154V180.471H363.841V174.154H374.121ZM403.318 172.704V180.696C403.318 184.005 402.932 186.905 402.158 189.397C401.406 191.89 400.311 193.974 398.871 195.649C397.453 197.304 395.734 198.55 393.715 199.388C391.717 200.226 389.472 200.645 386.979 200.645C384.573 200.645 382.36 200.226 380.341 199.388C378.321 198.55 376.581 197.304 375.12 195.649C373.681 193.974 372.563 191.89 371.769 189.397C370.995 186.905 370.608 184.005 370.608 180.696V172.704C370.608 169.353 370.995 166.42 371.769 163.906C372.542 161.371 373.648 159.255 375.088 157.558C376.549 155.86 378.278 154.582 380.276 153.723C382.296 152.863 384.52 152.434 386.947 152.434C389.418 152.434 391.663 152.863 393.683 153.723C395.702 154.582 397.432 155.86 398.871 157.558C400.311 159.255 401.406 161.371 402.158 163.906C402.932 166.42 403.318 169.353 403.318 172.704ZM395.552 180.696V172.64C395.552 170.255 395.358 168.214 394.972 166.517C394.606 164.798 394.059 163.401 393.328 162.327C392.598 161.231 391.695 160.426 390.621 159.91C389.568 159.373 388.344 159.104 386.947 159.104C385.594 159.104 384.38 159.373 383.306 159.91C382.253 160.426 381.351 161.231 380.599 162.327C379.868 163.401 379.31 164.798 378.923 166.517C378.558 168.214 378.375 170.255 378.375 172.64V180.696C378.375 183.038 378.568 185.058 378.955 186.755C379.342 188.431 379.9 189.806 380.631 190.88C381.383 191.933 382.296 192.717 383.37 193.232C384.444 193.748 385.647 194.006 386.979 194.006C388.397 194.006 389.633 193.748 390.686 193.232C391.76 192.717 392.651 191.933 393.36 190.88C394.091 189.806 394.639 188.431 395.004 186.755C395.369 185.058 395.552 183.038 395.552 180.696ZM435.996 153.078V159.652H418.433V200H410.602V153.078H435.996ZM458.2 182.598H448.307V176.056H458.2C459.812 176.056 461.111 175.712 462.1 175.024C463.109 174.337 463.84 173.392 464.291 172.188C464.764 170.985 465 169.621 465 168.096C465 166.635 464.764 165.26 464.291 163.971C463.84 162.682 463.12 161.64 462.132 160.845C461.144 160.05 459.833 159.652 458.2 159.652H450.498V200H442.699V153.078H458.2C461.294 153.078 463.937 153.723 466.128 155.012C468.319 156.301 469.995 158.073 471.155 160.329C472.315 162.563 472.896 165.131 472.896 168.031C472.896 171.061 472.315 173.66 471.155 175.83C469.995 178 468.319 179.676 466.128 180.857C463.937 182.018 461.294 182.598 458.2 182.598ZM490.846 159.523L479.502 200H471.316L486.205 153.078H491.297L490.846 159.523ZM499.901 200L488.525 159.523L487.978 153.078H493.166L508.119 200H499.901ZM500.095 182.565V189.14H478.245V182.565H500.095Z" fill="white"/>
</svg>
